<?xml version="1.0" encoding="UTF-8" standalone="no"?>
<!-- Generator: Adobe Illustrator 24.0.1, SVG Export Plug-In . SVG Version: 6.00 Build 0)  -->

<svg
   version="1.1"
   id="Layer_1"
   x="0px"
   y="0px"
   width="1000px"
   height="1000px"
   viewBox="0 0 1000 1000"
   style="enable-background:new 0 0 1000 1000;"
   xml:space="preserve"
   sodipodi:docname="拒絕連上四天課.svg"
   inkscape:version="1.2.1 (9c6d41e410, 2022-07-14)"
   xmlns:inkscape="http://www.inkscape.org/namespaces/inkscape"
   xmlns:sodipodi="http://sodipodi.sourceforge.net/DTD/sodipodi-0.dtd"
   xmlns="http://www.w3.org/2000/svg"
   xmlns:svg="http://www.w3.org/2000/svg"><defs
   id="defs993" /><sodipodi:namedview
   id="namedview991"
   pagecolor="#ffffff"
   bordercolor="#000000"
   borderopacity="0.25"
   inkscape:showpageshadow="2"
   inkscape:pageopacity="0.0"
   inkscape:pagecheckerboard="0"
   inkscape:deskcolor="#d1d1d1"
   showgrid="false"
   inkscape:zoom="1.628"
   inkscape:cx="472.66585"
   inkscape:cy="308.66093"
   inkscape:window-width="1920"
   inkscape:window-height="1001"
   inkscape:window-x="-9"
   inkscape:window-y="-9"
   inkscape:window-maximized="1"
   inkscape:current-layer="illustration" />
<g
   id="illustration"
   style="fill:#000000">
	
	
	
	
	
	
	
	
	
	
	
	
	
	
	
	
	
	
	
	
	
	
	
	
	
	
	
	
	
	
	
<path
   style="fill:#000080"
   d="m 119.87805,270.15997 c 0,0 0.4717,21.06839 1.6128,41.88651 1.11431,20.32931 2.86695,40.41996 5.44204,40.41996 2.35016,0 24.58421,-1.05532 65.94448,-2.89776 15.58184,-0.69411 33.87825,-1.49994 54.8487,-2.40314 22.831,-0.98334 53.22953,-2.45774 78.38427,-3.71036 26.42479,-1.31587 47.06291,-2.38699 47.06291,-2.38699 l 11.64312,115.7288 6.07225,86.63784 c 0,0 67.42473,0.88448 124.23804,2.16391 48.80845,1.09917 94.28637,-0.67675 94.68779,-3.08529 0.48155,-2.8893 3.17625,-19.41088 10.40981,-77.08804 5.81526,-46.36828 13.44807,-120.94422 13.44807,-120.94422 l 60.47849,5.07406 52.05943,4.36772 57.25474,4.47734 62.02183,4.85013 10.0109,-44.52399 5.23998,-36.49225 -26.06044,-5.24414 -32.47626,-6.5352 -32.00472,-6.44031 -40.70038,-8.06654 -47.81588,-9.93168 -46.83126,-6.32729 -46.5813,-5.33744 -48.76732,-1.58861 c -38.71226,40.01645 -81.06532,39.82756 -123.29853,2.81683 l -43.69832,-4.65989 -39.28963,3.93148 -50.50259,7.17586 -52.01917,8.85035 -60.9717,9.57969 z"
   id="path325"
   sodipodi:nodetypes="cssssscccssscccccccccccccccccccccc" /><ellipse
   style="fill:#ffffff;stroke-width:2;stroke-dasharray:none"
   id="path699-7"
   cx="503.31287"
   cy="356.05084"
   rx="86.609337"
   ry="84.920151" /><ellipse
   style="fill:#ff0000;stroke-width:2;stroke-dasharray:none"
   id="path699"
   cx="503.31293"
   cy="355.28302"
   rx="79.238327"
   ry="74.785011" /><path
   style="fill:#000000;stroke-width:2.09199;stroke-dasharray:none"
   d="m 434.09527,317.50199 14.9643,0.49269 -0.97888,26.23324 c 3.65216,1.91924 4.28522,6.17128 12.04453,0.98536 l 0.56102,-26.29993 15.64638,-0.34638 -6.48378,63.65797 c -13.13908,11.64295 -24.32763,7.87126 -33.18531,-1.22422 z"
   id="path585-5"
   sodipodi:nodetypes="ccccccccc" /><path
   style="fill:#000000;stroke-width:2.09199;stroke-dasharray:none"
   d="m 481.75678,320.09449 c 0,0 -1.5399,21.08663 -0.65995,21.29962 0.87994,0.213 13.85912,0.213 13.85912,0.213 l -3.73976,44.3032 11.65926,0.213 3.73977,-43.23822 14.73907,0.21299 2.85982,-23.64257 z"
   id="path641-2"
   sodipodi:nodetypes="csccccccc" /><path
   style="fill:#000000;stroke-width:2.09199;stroke-dasharray:none"
   d="m 517.94774,385.00665 14.95906,-65.17683 h 19.79876 l 13.19917,66.45481 -16.71896,-0.42599 -2.63983,-20.87363 -9.01944,-0.85199 -5.71964,21.93861 z"
   id="path643-4"
   sodipodi:nodetypes="ccccccccc" /><path
   style="fill:#ffffff;stroke-width:2.02345;stroke-dasharray:none"
   d="m 438.03148,317.84382 14.75509,0.46747 -0.9652,24.89039 c 3.6011,1.821 4.22531,5.85538 11.87614,0.93493 l 0.55318,-24.95368 15.42763,-0.32864 -6.39312,60.3994 c -12.9554,11.04697 -23.98753,7.46834 -32.72137,-1.16155 z"
   id="path585"
   sodipodi:nodetypes="ccccccccc" /><path
   style="fill:#ffffff;stroke-width:2.02345;stroke-dasharray:none"
   d="m 485.02666,320.30361 c 0,0 -1.51838,20.00723 -0.65073,20.20932 0.86764,0.2021 13.66537,0.2021 13.66537,0.2021 l -3.68748,42.03538 11.49626,0.20209 3.68748,-41.02491 14.53302,0.20209 2.81983,-22.43234 z"
   id="path641"
   sodipodi:nodetypes="csccccccc" /><path
   style="fill:#ffffff;stroke-width:2.02345;stroke-dasharray:none"
   d="m 520.71164,381.893 14.74993,-61.84051 h 19.52197 l 13.01464,63.05308 -16.48522,-0.40419 -2.60293,-19.80513 -8.89334,-0.80838 -5.63968,20.8156 z"
   id="path643"
   sodipodi:nodetypes="ccccccccc" /><path
   style="fill:#ffffff;stroke-width:2;stroke-dasharray:none"
   d="m 435.20946,396.55313 122.91844,-98.16102 6.51511,7.3838 -123.35278,99.46403 z"
   id="path797" /><path
   style="fill:#aa0000;stroke-width:2;stroke-dasharray:none"
   d="m 391.27764,540.54054 -5.07212,44.2783 -6.32226,55.1916 -2.56573,27.63852 -6.32258,68.10808 -4.28733,46.18399 53.4258,0.61059 54.06805,0.61792 c 3.97232,-17.57711 6.93715,-37.84083 10.34496,-56.9233 3.75876,-21.04774 8.05643,-40.65841 14.83932,-53.64181 8.12408,15.96929 12.11782,34.41679 15.08111,53.48256 2.95742,19.028 4.88848,38.67181 8.87467,57.08254 l 57.11629,0.33015 49.14906,0.2841 -4.01334,-49.16343 -5.5158,-67.56858 -5.3125,-65.07804 -4.81438,-58.97619 -107.48029,-1.20764 z"
   id="path2293"
   sodipodi:nodetypes="ccccccccscsccccccccc" /></g>
<g
   id="skeleton_1_"
   sodipodi:insensitive="true"
   style="opacity:0.25">
	<circle
   id="rightShoulder"
   cx="392.79999"
   cy="294.29999"
   r="8.1999998" />
	<circle
   id="rightElbow"
   cx="289.29999"
   cy="294.39999"
   r="8.1999998" />
	
		<circle
   id="rightWrist"
   transform="matrix(0.9951,-0.09853767,0.09853767,0.9951,-29.0274,13.8698)"
   cx="125.9"
   cy="300.79999"
   r="8.1999998" />
	<circle
   id="rightHip"
   cx="443.10001"
   cy="510.10001"
   r="8.1999998" />
	<circle
   id="rightKnee"
   cx="449.5"
   cy="670.29999"
   r="8.1999998" />
	<circle
   id="rightAnkle"
   cx="449.5"
   cy="878.29999"
   r="8.1999998" />
	<circle
   id="leftShoulder"
   cx="605.70001"
   cy="294.29999"
   r="8.1999998" />
	<circle
   id="leftElbow"
   cx="710.09998"
   cy="294"
   r="8.1999998" />
	<circle
   id="leftWrist"
   cx="873.5"
   cy="300.29999"
   r="8.1999998" />
	<circle
   id="leftHip"
   cx="559.5"
   cy="509.29999"
   r="8.1999998" />
	<circle
   id="leftKnee"
   cx="559.5"
   cy="670.29999"
   r="8.1999998" />
	<circle
   id="leftAnkle"
   cx="559.5"
   cy="878.29999"
   r="8.1999998" />
	<polygon
   style="fill:none;stroke:#000000;stroke-miterlimit:10"
   points="443,510.4 559.4,509.6 605.6,294.6 392.7,294.6 "
   id="polygon886" />
	<polyline
   style="fill:none;stroke:#000000;stroke-miterlimit:10"
   points="391.7,294.6 289,294.6 125.7,300.9  "
   id="polyline888" />
	<polyline
   style="fill:none;stroke:#000000;stroke-miterlimit:10"
   points="607.1,294.2 710.3,294.2 873.6,300.6  "
   id="polyline890" />
	<polyline
   style="fill:none;stroke:#000000;stroke-miterlimit:10"
   points="443,510.4 449.4,670.6 449.4,878.6  "
   id="polyline892" />
	<polyline
   style="fill:none;stroke:#000000;stroke-miterlimit:10"
   points="559.4,509.6 559.4,670.6 559.4,878.6  "
   id="polyline894" />
	<circle
   id="rightEye0"
   cx="468.60001"
   cy="160.2"
   r="0.80000001" />
	<circle
   id="rightBrow1"
   cx="466.39999"
   cy="148.3"
   r="0.80000001" />
	<circle
   id="rightBrow4"
   cx="489.70001"
   cy="151.3"
   r="0.80000001" />
	<circle
   id="nose1"
   cx="497.60001"
   cy="161.2"
   r="0.80000001" />
	<circle
   id="rightBrow3"
   cx="479.89999"
   cy="147.3"
   r="0.80000001" />
	<circle
   id="rightEye1"
   cx="473.79999"
   cy="156.5"
   r="0.80000001" />
	<circle
   id="rightBrow0"
   cx="462.39999"
   cy="152"
   r="0.80000001" />
	<circle
   id="rightBrow2"
   cx="472.60001"
   cy="147.3"
   r="0.80000001" />
	<circle
   id="rightEye5"
   cx="473.79999"
   cy="162.5"
   r="0.80000001" />
	<circle
   id="rightEye2"
   cx="480.10001"
   cy="156.5"
   r="0.80000001" />
	<circle
   id="rightEye3"
   cx="485.29999"
   cy="160.7"
   r="0.80000001" />
	<circle
   id="nose0"
   cx="497.60001"
   cy="155.39999"
   r="0.80000001" />
	<circle
   id="nose3"
   cx="497.60001"
   cy="173.8"
   r="0.80000001" />
	<circle
   id="rightNose0"
   cx="486.89999"
   cy="178.3"
   r="0.80000001" />
	<circle
   id="rightMouthCorner"
   cx="480.89999"
   cy="200.39999"
   r="0.80000001" />
	<circle
   id="rightNose1"
   cx="492.10001"
   cy="178.3"
   r="0.80000001" />
	<circle
   id="rightUpperLipTop0"
   cx="487.79999"
   cy="197"
   r="0.80000001" />
	<circle
   id="nose2"
   cx="497.60001"
   cy="166.7"
   r="0.80000001" />
	<circle
   id="nose4"
   cx="497.60001"
   cy="179.10001"
   r="0.80000001" />
	<circle
   id="upperLipTopMid"
   cx="498.39999"
   cy="196.8"
   r="0.80000001" />
	<circle
   id="rightUpperLipTop1"
   cx="494.29999"
   cy="195.89999"
   r="0.80000001" />
	<path
   id="rightMiddleLip"
   d="m 484.5,199.9 c 0.4,0 0.8,0.4 0.8,0.8 0,0.4 -0.4,0.8 -0.8,0.8 -0.4,0 -0.8,-0.4 -0.8,-0.8 0,-0.4 0.4,-0.8 0.8,-0.8 z" />
	<circle
   id="lowerLipBottomMid"
   cx="498.39999"
   cy="210"
   r="0.80000001" />
	<circle
   id="upperLipBottomMid"
   cx="498.39999"
   cy="200.39999"
   r="0.80000001" />
	<circle
   id="lowerLipTopMid"
   cx="498.39999"
   cy="203.5"
   r="0.80000001" />
	<circle
   id="rightUpperLipBottom1"
   cx="494.5"
   cy="199.89999"
   r="0.80000001" />
	<circle
   id="rightLowerLipTop0"
   cx="494.5"
   cy="202.8"
   r="0.80000001" />
	<circle
   id="rightLowerLipBottom1"
   cx="494.29999"
   cy="209.5"
   r="0.80000001" />
	<circle
   id="rightLowerLipBottom0"
   cx="487.29999"
   cy="206.7"
   r="0.80000001" />
	<circle
   id="rightEye4"
   cx="480.10001"
   cy="161.7"
   r="0.80000001" />
	<circle
   id="jawMid"
   cx="498.39999"
   cy="235.8"
   r="0.80000001" />
	<circle
   id="rightJaw7"
   cx="483.39999"
   cy="232.60001"
   r="0.80000001" />
	<circle
   id="rightJaw6"
   cx="473.39999"
   cy="225.89999"
   r="0.80000001" />
	<circle
   id="rightJaw5"
   cx="461.79999"
   cy="213.39999"
   r="0.80000001" />
	<circle
   id="rightJaw4"
   cx="455"
   cy="193.39999"
   r="0.80000001" />
	<circle
   id="rightJaw3"
   cx="454.20001"
   cy="171.7"
   r="0.80000001" />
	<circle
   id="rightJaw2"
   cx="454.20001"
   cy="162.2"
   r="0.80000001" />
	<circle
   id="rightJaw1"
   cx="455"
   cy="150.5"
   r="0.80000001" />
	<circle
   id="rightJaw0"
   cx="457.5"
   cy="141.2"
   r="0.80000001" />
	<circle
   id="topMid"
   cx="498.60001"
   cy="115.1"
   r="0.80000001" />
	<circle
   id="leftTop0"
   cx="518.29999"
   cy="117.6"
   r="0.80000001" />
	<circle
   id="leftTop1"
   cx="530.90002"
   cy="127.1"
   r="0.80000001" />
	<circle
   id="leftEye0"
   cx="528.20001"
   cy="160.2"
   r="0.80000001" />
	<circle
   id="leftBrow1"
   cx="530.09998"
   cy="148.7"
   r="0.80000001" />
	<circle
   id="leftBrow4"
   cx="506.5"
   cy="150.8"
   r="0.80000001" />
	<circle
   id="leftBrow3"
   cx="516.5"
   cy="147.60001"
   r="0.80000001" />
	<circle
   id="leftEye1"
   cx="523"
   cy="156.5"
   r="0.80000001" />
	<circle
   id="leftBrow0"
   cx="534.09998"
   cy="151.60001"
   r="0.80000001" />
	<circle
   id="leftBrow2"
   cx="523.79999"
   cy="147.2"
   r="0.80000001" />
	<circle
   id="leftEye5"
   cx="523"
   cy="162.5"
   r="0.80000001" />
	<circle
   id="leftEye2"
   cx="516.70001"
   cy="156.5"
   r="0.80000001" />
	<circle
   id="leftEye3"
   cx="511.5"
   cy="160.7"
   r="0.80000001" />
	<circle
   id="leftNose0"
   cx="508"
   cy="178.3"
   r="0.80000001" />
	<circle
   id="leftMouthCorner"
   cx="515.90002"
   cy="200.39999"
   r="0.80000001" />
	<circle
   id="leftNose1"
   cx="503.20001"
   cy="178.3"
   r="0.80000001" />
	<circle
   id="leftUpperLipTop0"
   cx="509"
   cy="197"
   r="0.80000001" />
	<circle
   id="leftUpperLipTop1"
   cx="502.60001"
   cy="195.89999"
   r="0.80000001" />
	<path
   id="leftMiddleLip"
   d="m 512.3,199.9 c 0.4,0 0.8,0.4 0.8,0.8 0,0.4 -0.4,0.8 -0.8,0.8 -0.4,0 -0.8,-0.4 -0.8,-0.8 0,-0.4 0.4,-0.8 0.8,-0.8 z" />
	<circle
   id="leftUpperLipBottom1"
   cx="502.39999"
   cy="199.89999"
   r="0.80000001" />
	<circle
   id="leftLowerLipTop0"
   cx="502.39999"
   cy="202.8"
   r="0.80000001" />
	<circle
   id="leftLowerLipBottom1"
   cx="502.60001"
   cy="209.5"
   r="0.80000001" />
	<circle
   id="leftLowerLipBottom0"
   cx="509.5"
   cy="206.7"
   r="0.80000001" />
	<circle
   id="leftEye4"
   cx="516.70001"
   cy="161.7"
   r="0.80000001" />
	<circle
   id="leftJaw7"
   cx="513.20001"
   cy="233"
   r="0.80000001" />
	<circle
   id="leftJaw6"
   cx="523.20001"
   cy="226.3"
   r="0.80000001" />
	<circle
   id="leftJaw5"
   cx="534.79999"
   cy="213.7"
   r="0.80000001" />
	<circle
   id="leftJaw4"
   cx="541.59998"
   cy="193.7"
   r="0.80000001" />
	<circle
   id="leftJaw3"
   cx="542.40002"
   cy="172.10001"
   r="0.80000001" />
	<circle
   id="leftJaw2"
   cx="542.40002"
   cy="162.5"
   r="0.80000001" />
	<circle
   id="leftJaw1"
   cx="541.59998"
   cy="150.8"
   r="0.80000001" />
	<circle
   id="leftJaw0"
   cx="539.09998"
   cy="141.60001"
   r="0.80000001" />
	<polyline
   style="fill:none;stroke:#000000;stroke-miterlimit:10"
   points="498.4,115.1 478.6,117.6 466.1,127.1 457.5,141.2    455,150.5 454.2,162.2 454.2,171.7 455,193.4 461.8,213.4 473.4,225.9 483.4,232.6 498.4,235.8 513.2,233 523.2,226.3 534.8,213.7    541.6,193.7 542.4,172.1 542.4,162.5 541.6,150.8 539.1,141.6 530.9,127.1 518.3,117.6 498.4,115.1  "
   id="polyline967" />
	<polyline
   style="fill:none;stroke:#000000;stroke-miterlimit:10"
   points="462.4,152 466.4,148.3 472.6,147.3 479.9,147.3    489.7,151.3  "
   id="polyline969" />
	<polygon
   style="fill:none;stroke:#000000;stroke-miterlimit:10"
   points="473.8,156.5 480.1,156.5 485.3,160.7 480.1,161.7 473.8,162.5 468.6,160.2 "
   id="polygon971" />
	<polyline
   style="fill:none;stroke:#000000;stroke-miterlimit:10"
   points="486.9,178.3 492.1,178.3 497.6,179.1 497.6,173.8    497.6,166.7 497.6,161.2 497.6,155.4  "
   id="polyline973" />
	<polyline
   style="fill:none;stroke:#000000;stroke-miterlimit:10"
   points="533.9,151.6 529.9,148.7 523.6,147.2 516.3,147.6    506.3,150.8  "
   id="polyline975" />
	<polygon
   style="fill:none;stroke:#000000;stroke-miterlimit:10"
   points="522.7,156.5 516.4,156.5 511.3,160.7 516.4,161.7 522.7,162.5 528,160.2 "
   id="polygon977" />
	<polyline
   style="fill:none;stroke:#000000;stroke-miterlimit:10"
   points="508,178.3 503,178.3 497.6,179.1  "
   id="polyline979" />
	<polygon
   style="fill:none;stroke:#000000;stroke-miterlimit:10"
   points="487.8,197 494.3,195.9 498.4,196.8 502.6,195.9 509,197 515.9,200.4 509.5,206.7 502.4,209.5 498.4,210 494.3,209.5 487.3,206.7 480.9,200.4 "
   id="polygon981" />
	<polyline
   style="fill:none;stroke:#000000;stroke-miterlimit:10"
   points="480.9,200.4 484.5,200.7 494.5,199.9 498.4,200.4    502.4,199.9 512.3,200.7 515.9,200.4  "
   id="polyline983" />
	<polyline
   style="fill:none;stroke:#000000;stroke-miterlimit:10"
   points="480.9,200.4 484.5,200.7 494.5,202.8 498.4,203.6    502.4,202.8 512.3,200.7 515.9,200.4  "
   id="polyline985" />
	<circle
   id="rightTop0"
   cx="478.70001"
   cy="117.6"
   r="0.80000001" />
	<circle
   id="rightTop1"
   cx="466.10001"
   cy="127.1"
   r="0.80000001" />
</g>
</svg>
